<?xml version="1.0" standalone="no"?>
<!DOCTYPE svg PUBLIC "-//W3C//DTD SVG 20010904//EN"
 "http://www.w3.org/TR/2001/REC-SVG-20010904/DTD/svg10.dtd">
<svg version="1.0" xmlns="http://www.w3.org/2000/svg"
 width="56.000000pt" height="56.000000pt" viewBox="0 0 56.000000 56.000000"
 preserveAspectRatio="xMidYMid meet">

<g transform="translate(0.000000,56.000000) scale(0.100000,-0.100000)"
fill="#000000" stroke="none">
<path d="M220 537 c-13 -7 -35 -28 -48 -47 -44 -65 -12 -152 65 -179 51 -18
87 -9 130 34 95 95 -25 254 -147 192z"/>
<path d="M124 270 c-39 -16 -66 -67 -72 -136 -5 -73 6 -105 45 -123 14 -7 89
-11 188 -11 161 0 164 0 194 26 28 23 31 32 31 80 0 132 -70 200 -159 155 -51
-26 -91 -26 -141 -1 -43 22 -54 23 -86 10z"/>
</g>
</svg>
